<svg width="23" height="18" viewBox="0 0 23 18" fill="none" xmlns="http://www.w3.org/2000/svg">
<path d="M22.9616 2.17863C22.1435 2.5375 21.2718 2.77538 20.3629 2.89088C21.2979 2.33263 22.0115 1.45537 22.347 0.398C21.4753 0.91775 20.5128 1.28488 19.487 1.48975C18.6593 0.608375 17.4795 0.0625 16.1925 0.0625C13.6955 0.0625 11.6853 2.08925 11.6853 4.57387C11.6853 4.93138 11.7155 5.27513 11.7898 5.60238C8.04014 5.4195 4.72226 3.62238 2.49339 0.88475C2.10426 1.55988 1.87601 2.33262 1.87601 3.1645C1.87601 4.7265 2.68039 6.11112 3.87939 6.91275C3.15476 6.899 2.44389 6.68863 1.84164 6.35725C1.84164 6.371 1.84164 6.38888 1.84164 6.40675C1.84164 8.5985 3.40501 10.419 5.45514 10.8384C5.08801 10.9388 4.68789 10.9869 4.27264 10.9869C3.98389 10.9869 3.69239 10.9704 3.41876 10.9099C4.00314 12.696 5.66139 14.0091 7.63314 14.0518C6.09864 15.2521 4.15026 15.9754 2.04101 15.9754C1.67114 15.9754 1.31639 15.9589 0.961639 15.9135C2.95951 17.2019 5.32726 17.9375 7.88064 17.9375C16.1801 17.9375 20.7176 11.0625 20.7176 5.10325C20.7176 4.90387 20.7108 4.71137 20.7011 4.52025C21.5963 3.885 22.3484 3.09163 22.9616 2.17863Z" fill="white"/>
</svg>
